<?xml version="1.0" encoding="UTF-8"?>
<svg id="Layer_2" data-name="Layer 2" xmlns="http://www.w3.org/2000/svg" viewBox="0 0 618.97 750.85">
  <defs>
    <style>
      .cls-1 {
        opacity: .5;
      }

      .cls-1, .cls-2 {
        fill: #833e29;
      }
    </style>
  </defs>
  <g id="Layer_1-2" data-name="Layer 1">
    <g>
      <path class="cls-2" d="M287.32,750.85c-.53-8.09-1.06-16.19-1.59-24.28l-10.59-22.98c-2.18-4.73-4.36-9.45-6.54-14.18-.73-26.25-1.46-52.5-2.2-78.74l-6.44,77.85,7.56,22.34,5.32,15.71c-.58,8.09-1.17,16.19-1.75,24.28h16.23Z"/>
      <path class="cls-1" d="M618.97,620.54v18.83c0,31.09-12.72,59.21-33.28,79.44-5.2,5.12-10.94,9.78-17.09,13.79-12.51,8.24-26.79,14.01-42.13,16.64-5.9,1.01-11.96,1.56-18.13,1.6-.28,0-.57,0-.85,0H109.34c-12.55,0-24.63-2.08-35.89-5.91h-.03c-5.94-2.03-11.66-4.53-17.1-7.49-8.69-4.7-16.68-10.52-23.79-17.28-16.33-15.53-27.96-35.95-32.53-58.92,2.69-13.21,4.54-27.5,4.71-43.1,.04-2.85,.25-22.38,3.47-48.27,1.28-10.49,6.27-50.54,11.27-50.42,5.37,.13,13.79,47.2,11.97,91.63-.29,7.22-.95,17.5,1.94,31.13,3.29,15.32,12.63,42.17,23.33,43.11,.19,.02,.39,.03,.58,.03,5.74-.02,11.05-7.64,15.78-18.67,7.77-18.11,13.98-45.41,18.04-63.2,2.76-12.1,7.84-37.41,10.65-63.46,.49-4.88,.62-6.49,1.98-19.24,0-.17,.04-.33,.04-.5,.79-7.6,11.73-8.09,13.17-.62,2.52,13.13,4.92,27.91,6.69,44.14,.61,5.58,1.12,11.07,1.54,16.43,5.62,71.32-3.89,122.1,6.34,126.36,.18,.08,.36,.14,.55,.19,7.34,1.82,19.11-18.91,23.41-28.07,7.18-15.24,6.15-24.9,15.27-53.1,6.73-20.81,9.13-21.22,9.95-21.22,8.1,.16,15.49,48.02,15.82,56.93,.08,1.45,.16,4.59,1.11,8.67,.46,2.03,1.08,3.72,2.27,7.6,1.61,5.33,11.65,38.15,35.22,42.94,10.42,2.09,22.22-1.56,32.42-9.68,2.67-2.12,5.23-4.55,7.62-7.27,4.16-4.71,7.82-10.27,10.71-16.57,4.58-11.19,8.92-23.5,12.8-36.88,8.83-30.59,12.71-58.67,14.08-82.24,3.8,28.69,8.83,51.98,13.09,68.83,3.92,15.52,6.73,21.63,11.23,28.94,10.86,17.88,32.2,31.13,52.43,25.89,6.69-1.74,12.76-5.29,19.37-7.15,19.9-5.53,40.38,5,58.38,15.2,5.78,2.81,14.91,6.11,25.68,5,6.58-.69,12.56-3.08,17.89-6.38,5.82-3.59,10.85-8.27,15.05-12.99,6.55-7.38,11.03-14.86,13.18-18.46,17.96-30.14,16.73-57.68,17.26-112.14,.21-25.56,.91-65.52,3.31-116.14,1.56,22.29,2.64,39.68,3.3,50.45,2.19,35.22,2.02,38.19,4.66,45.79,.53,1.52,1.38,3.92,2.36,6.79h0c2.48,7.25,5.75,17.53,6.6,24.71,.46,3.8,.91,9.91,2.65,18.92,1.36,7.14,2.8,12.34,3.3,14.28,.97,3.57,1.85,7.03,2.64,10.36,6.11,25.53,7.64,43.14,12.97,43.69,7.47,.78,12.22-33.2,20.89-32.95Z"/>
      <path class="cls-2" d="M526.47,749.24c-5.9,1.01-11.96,1.56-18.13,1.6,.85-19.08,1.67-36.62,2.46-52.61,4.1-83.09,7.42-124.61,9.95-124.56,2.4,.04,4.1,37.23,5.1,111.57,.25,18.92,.46,40.26,.62,64Z"/>
      <path class="cls-2" d="M73.45,744.94c-.13-26.08-.26-52.17-.4-78.25-1.12-222.22-2.24-444.46-3.37-666.69-2.74,1.16-5.49,2.33-8.24,3.49-1.58,227.28-3.17,454.55-4.75,681.84-.12,17.37-.24,34.75-.37,52.12l17.13,7.49Z"/>
      <path class="cls-2" d="M131.9,750.85h-17.91c4.58-102.39,8.31-159.26,11.17-170.61,.36-1.43,.71-2.14,1.04-2.14,2.57,.05,4.34,42.89,5.3,128.5,.16,13.66,.29,28.41,.4,44.25Z"/>
      <path class="cls-2" d="M585.67,718.81c-5.2,5.12-10.94,9.79-17.09,13.79,1.69-239.15,3.34-478.25,5.04-717.4,2.97,2.19,5.82,4.54,8.51,7.02,1.16,232.21,2.35,464.42,3.55,696.59Z"/>
    </g>
  </g>
</svg>