<?xml version="1.0" encoding="UTF-8"?>
<svg id="Layer_2" data-name="Layer 2" xmlns="http://www.w3.org/2000/svg" viewBox="0 0 744.09 881.23">
  <defs>
    <style>
      .cls-1 {
        fill: #fff;
      }

      .cls-2 {
        opacity: .5;
      }

      .cls-2, .cls-3, .cls-4 {
        fill: #833e29;
      }

      .cls-5 {
        fill: #e78959;
      }

      .cls-6 {
        fill: #974a2c;
      }

      .cls-4 {
        opacity: .25;
      }
    </style>
  </defs>
  <g id="Layer_1-2" data-name="Layer 1">
    <g>
      <rect class="cls-4" x="-64.45" y="72.7" width="872.98" height="744.09" rx="175.61" ry="175.61" transform="translate(816.79 72.7) rotate(90)"/>
      <rect class="cls-1" x="16.07" width="711.94" height="848.2" rx="162.76" ry="162.76"/>
      <rect class="cls-5" x="28.46" y="12.39" width="687.17" height="823.43" rx="149.91" ry="149.91"/>
      <path class="cls-3" d="M170.97,819.3c-66.68,0-120.94-53.71-120.94-119.74V165.16c0-66.02,54.25-119.74,120.94-119.74h402.14c66.68,0,120.94,53.71,120.94,119.74V699.56c0,66.02-54.25,119.74-120.94,119.74H170.97Z"/>
      <path class="cls-6" d="M682.61,156.9V691.31c0,31.09-12.72,59.21-33.28,79.44-5.2,5.12-10.94,9.79-17.09,13.79-17.55,11.56-38.56,18.25-61.11,18.25H172.97c-54.09,0-99.18-38.52-109.33-89.6-1.4-7.06-2.15-14.37-2.15-21.88V156.9c0-61.56,49.92-111.48,111.48-111.48h398.15c24.73,0,47.65,8.05,66.15,21.72,2.97,2.19,5.82,4.54,8.51,7.02,22.63,20.36,36.83,49.92,36.83,82.74Z"/>
      <path class="cls-2" d="M682.61,672.48v18.83c0,31.09-12.72,59.21-33.28,79.44-5.2,5.12-10.94,9.79-17.09,13.79-17.55,11.56-38.56,18.25-61.11,18.25H172.97c-54.09,0-99.18-38.52-109.33-89.6,2.68-13.21,4.54-27.5,4.71-43.11,.04-2.85,.25-22.38,3.47-48.27,1.28-10.49,6.28-50.54,11.27-50.41,5.37,.12,13.79,47.19,11.97,91.62-.29,7.23-.95,17.51,1.94,31.13,3.34,15.61,12.96,43.15,23.91,43.15,15.19-.04,27.29-53.26,33.82-81.88,2.77-12.1,7.85-37.41,10.65-63.46,.5-4.87,.62-6.48,1.98-19.24,0-.17,.04-.33,.04-.5,.78-7.6,11.73-8.09,13.17-.62,2.52,13.13,4.91,27.91,6.69,44.14,8.84,81.13-3.51,140.09,8.42,142.98,7.35,1.82,19.12-18.91,23.41-28.08,7.18-15.24,6.15-24.9,15.28-53.1,6.73-20.81,9.12-21.22,9.95-21.22,8.09,.17,15.48,48.02,15.81,56.94,.08,1.45,.17,4.58,1.11,8.67,.45,2.02,1.07,3.72,2.27,7.6,1.61,5.33,11.64,38.15,35.22,42.94,17.88,3.59,39.84-9.74,50.74-33.53,4.58-11.19,8.92-23.49,12.8-36.87,8.84-30.6,12.72-58.67,14.08-82.25,3.8,28.7,8.84,51.98,13.09,68.83,3.92,15.52,6.73,21.64,11.23,28.94,10.86,17.88,32.21,31.13,52.44,25.89,6.69-1.73,12.76-5.28,19.36-7.14,19.9-5.53,40.38,5,58.38,15.19,5.78,2.81,14.91,6.11,25.68,5,25.02-2.6,41.33-29.81,46.12-37.82,17.96-30.14,16.72-57.68,17.26-112.14,.21-25.56,.91-65.53,3.3-116.15,1.57,22.3,2.64,39.68,3.3,50.46,2.19,35.22,2.02,38.19,4.67,45.79,1.86,5.37,7.76,21.47,8.96,31.5,.45,3.8,.91,9.91,2.64,18.91,1.36,7.14,2.81,12.35,3.3,14.29,8.42,31.01,9.58,53.43,15.61,54.05,7.47,.78,12.22-33.2,20.89-32.95Z"/>
      <path class="cls-3" d="M571.78,807.42c5.34-121.28,9.55-181.88,12.61-181.82,3.04,.06,4.96,59.86,5.75,179.39-6.12,.81-12.24,1.62-18.36,2.43Z"/>
      <path class="cls-3" d="M649.31,770.74c-5.2,5.12-10.94,9.79-17.09,13.79,1.69-239.15,3.34-478.25,5.04-717.4,2.97,2.19,5.82,4.54,8.51,7.02,1.16,232.21,2.35,464.42,3.55,696.59Z"/>
    </g>
  </g>
</svg>